<svg id="visual" viewBox="0 0 900 600" width="900" height="600" xmlns="http://www.w3.org/2000/svg" xmlns:xlink="http://www.w3.org/1999/xlink" version="1.1"><rect x="0" y="0" width="900" height="600" fill="#000000"></rect><g transform="translate(469.3861944769063 297.1543404854216)"><path d="M129.4 -188.4C144.8 -141.3 118.6 -78.8 117.3 -29.1C116.1 20.6 139.9 57.6 135.5 90.5C131.1 123.5 98.6 152.4 49.9 195.4C1.3 238.4 -63.5 295.4 -106.3 283.5C-149 271.6 -169.8 190.8 -170.1 128.2C-170.3 65.7 -150.2 21.4 -154.7 -40.2C-159.3 -101.8 -188.6 -180.8 -166.9 -226.8C-145.3 -272.8 -72.6 -285.9 -7.8 -276.6C57 -267.3 114 -235.5 129.4 -188.4" fill="#1a78eb"></path></g></svg>