<svg id="visual" viewBox="0 0 900 600" width="900" height="600" xmlns="http://www.w3.org/2000/svg" xmlns:xlink="http://www.w3.org/1999/xlink" version="1.1"><rect x="0" y="0" width="900" height="600" fill="#001220"></rect><defs><linearGradient id="grad1_0" x1="33.3%" y1="0%" x2="100%" y2="100%"><stop offset="20%" stop-color="#001220" stop-opacity="1"></stop><stop offset="80%" stop-color="#001220" stop-opacity="1"></stop></linearGradient></defs><defs><linearGradient id="grad2_0" x1="0%" y1="0%" x2="66.7%" y2="100%"><stop offset="20%" stop-color="#001220" stop-opacity="1"></stop><stop offset="80%" stop-color="#001220" stop-opacity="1"></stop></linearGradient></defs><g transform="translate(900, 0)"><path d="M0 459.7C-23.9 439.7 -47.7 419.6 -72.4 410.7C-97.1 401.7 -122.7 403.9 -144 395.6C-165.3 387.3 -182.4 368.6 -209.5 362.9C-236.6 357.1 -273.8 364.2 -294.4 350.8C-315 337.5 -319 303.6 -335.5 281.5C-352 259.5 -380.9 249.2 -398.1 229.9C-415.3 210.5 -420.8 182.1 -427.6 155.6C-434.4 129.1 -442.5 104.6 -448.1 79C-453.7 53.4 -456.7 26.7 -459.7 0L0 0Z" fill="#FBAE3C"></path></g><g transform="translate(0, 600)"><path d="M0 -459.7C24.3 -439.8 48.7 -420 72.2 -409.7C95.8 -399.4 118.5 -398.7 145.4 -399.4C172.2 -400 203.2 -401.9 225 -389.7C246.8 -377.5 259.5 -351.1 280.9 -334.8C302.3 -318.5 332.3 -312.3 352.2 -295.5C372 -278.7 381.8 -251.3 388.8 -224.5C395.9 -197.7 400.3 -171.6 402.2 -146.4C404.1 -121.2 403.5 -97 412.6 -72.8C421.8 -48.5 440.8 -24.3 459.7 0L0 0Z" fill="#FBAE3C"></path></g></svg>