<svg id="visual" viewBox="0 0 900 600" width="900" height="600" xmlns="http://www.w3.org/2000/svg" xmlns:xlink="http://www.w3.org/1999/xlink" version="1.1"><rect x="0" y="0" width="900" height="600" fill="#001220"></rect><defs><linearGradient id="grad1_0" x1="33.3%" y1="0%" x2="100%" y2="100%"><stop offset="20%" stop-color="#001220" stop-opacity="1"></stop><stop offset="80%" stop-color="#001220" stop-opacity="1"></stop></linearGradient></defs><defs><linearGradient id="grad2_0" x1="0%" y1="0%" x2="66.7%" y2="100%"><stop offset="20%" stop-color="#001220" stop-opacity="1"></stop><stop offset="80%" stop-color="#001220" stop-opacity="1"></stop></linearGradient></defs><g transform="translate(900, 0)"><path d="M0 432.7C-25.6 414.6 -51.2 396.5 -77.1 387.4C-102.9 378.3 -129.1 378.1 -154.6 373.2C-180.1 368.4 -204.9 358.7 -233.3 349.2C-261.7 339.7 -293.7 330.3 -305.9 305.9C-318.2 281.6 -310.7 242.4 -326.8 218.3C-342.8 194.3 -382.5 185.5 -396.3 164.2C-410.2 142.9 -398.4 109 -400.2 79.6C-401.9 50.2 -417.3 25.1 -432.7 0L0 0Z" fill="#FBAE3C"></path></g><g transform="translate(0, 600)"><path d="M0 -432.7C28.2 -425.5 56.4 -418.2 80.8 -406C105.2 -393.8 125.8 -376.7 153.8 -371.4C181.9 -366.1 217.4 -372.8 240.4 -359.7C263.3 -346.7 273.7 -314 291.3 -291.3C308.9 -268.6 333.8 -256 353.4 -236.1C373 -216.3 387.4 -189.3 389 -161.1C390.5 -132.9 379.3 -103.5 384.5 -76.5C389.6 -49.4 411.1 -24.7 432.7 0L0 0Z" fill="#FBAE3C"></path></g></svg>