<svg id="visual" viewBox="0 0 900 600" width="900" height="600" xmlns="http://www.w3.org/2000/svg" xmlns:xlink="http://www.w3.org/1999/xlink" version="1.1"><rect x="0" y="0" width="900" height="600" fill="#000000"></rect><g transform="translate(431.89094927070846 359.61294402405747)"><path d="M95.1 -160.2C110.5 -100.4 101.4 -58.3 133.4 -4.6C165.5 49.1 238.6 114.6 232.5 142.7C226.3 170.7 140.9 161.5 77.5 162.8C14.1 164.1 -27.1 176 -74.9 172.9C-122.7 169.8 -177 151.6 -192 115.7C-207 79.7 -182.8 25.9 -159.9 -15C-137 -55.9 -115.4 -83.9 -89 -141.7C-62.6 -199.6 -31.3 -287.3 4.3 -292.4C39.9 -297.5 79.7 -220 95.1 -160.2" fill="#1a78eb"></path></g></svg>